HIERARCHY
ROOT Hips
{
	OFFSET 53.765099 -6.489625 91.646400
	CHANNELS 6 Xposition Yposition Zposition Xrotation Yrotation Zrotation
	JOINT spine
	{
		OFFSET 0.000000 -0.393702 6.846367
		CHANNELS 3 Xrotation Yrotation Zrotation
		JOINT spine1
		{
			OFFSET 0.000000 -0.000001 9.496208
			CHANNELS 3 Xrotation Yrotation Zrotation
			JOINT spine2
			{
				OFFSET 0.000000 -0.000001 9.099091
				CHANNELS 3 Xrotation Yrotation Zrotation
				JOINT Neck
				{
					OFFSET 0.000000 -1.113784 23.361198
					CHANNELS 3 Xrotation Yrotation Zrotation
					JOINT Head
					{
						OFFSET 0.000000 -0.000001 7.058014
						CHANNELS 3 Xrotation Yrotation Zrotation
						End Site
						{
							OFFSET 0.000000 5.634187 17.084396
						}
					}
				}
				JOINT RightShoulder
				{
					OFFSET -3.831360 0.533490 9.826309
					CHANNELS 3 Xrotation Yrotation Zrotation
					JOINT RightArm
					{
						OFFSET 0.000000 -0.000002 12.888100
						CHANNELS 3 Xrotation Yrotation Zrotation
						JOINT RightArmRoll
						{
							OFFSET 0.000000 -0.000001 6.506165
							CHANNELS 3 Xrotation Yrotation Zrotation
							JOINT RightForeArm
							{
								OFFSET 0.000000 -0.000003 18.950104
								CHANNELS 3 Xrotation Yrotation Zrotation
								JOINT RightForeArmRoll
								{
									OFFSET 0.000000 -0.000001 7.300919
									CHANNELS 3 Xrotation Yrotation Zrotation
									JOINT RightHand
									{
										OFFSET 0.000000 -0.000002 14.651398
										CHANNELS 3 Xrotation Yrotation Zrotation
										End Site
										{
											OFFSET 0.000000 0.000000 0.100006
										}
									}
								}
							}
						}
					}
				}
				JOINT LeftShoulder
				{
					OFFSET 3.831360 0.533490 9.826309
					CHANNELS 3 Xrotation Yrotation Zrotation
					JOINT LeftArm
					{
						OFFSET 0.000000 -0.000002 12.888100
						CHANNELS 3 Xrotation Yrotation Zrotation
						JOINT LeftArmRoll
						{
							OFFSET 0.000000 -0.000001 6.506165
							CHANNELS 3 Xrotation Yrotation Zrotation
							JOINT LeftForeArm
							{
								OFFSET 0.000000 -0.000003 18.950104
								CHANNELS 3 Xrotation Yrotation Zrotation
								JOINT LeftForeArmRoll
								{
									OFFSET 0.000000 -0.000001 7.300919
									CHANNELS 3 Xrotation Yrotation Zrotation
									JOINT LeftHand
									{
										OFFSET 0.000000 -0.000002 14.651398
										CHANNELS 3 Xrotation Yrotation Zrotation
										End Site
										{
											OFFSET 0.000000 0.000000 0.100006
										}
									}
								}
							}
						}
					}
				}
			}
		}
	}
	JOINT RightUpLeg
	{
		OFFSET -6.068371 0.933477 -1.112778
		CHANNELS 3 Xrotation Yrotation Zrotation
		JOINT RightUpLegRoll
		{
			OFFSET 0.000000 -0.000003 17.179604
			CHANNELS 3 Xrotation Yrotation Zrotation
			JOINT RightLeg
			{
				OFFSET 0.000000 0.000003 -21.274300
				CHANNELS 3 Xrotation Yrotation Zrotation
				JOINT RightLegRoll
				{
					OFFSET 0.000000 -0.000003 21.343903
					CHANNELS 3 Xrotation Yrotation Zrotation
					JOINT RightFoot
					{
						OFFSET 0.000000 -0.000003 17.765198
						CHANNELS 3 Xrotation Yrotation Zrotation
						JOINT RightToeBase
						{
							OFFSET 0.000000 -0.000002 14.850807
							CHANNELS 3 Xrotation Yrotation Zrotation
							End Site
							{
								OFFSET 0.006294 0.829004 7.192139
							}
						}
					}
				}
			}
		}
	}
	JOINT LeftUpLeg
	{
		OFFSET 6.068371 0.933477 -1.112778
		CHANNELS 3 Xrotation Yrotation Zrotation
		JOINT LeftUpLegRoll
		{
			OFFSET 0.000000 -0.000003 17.179703
			CHANNELS 3 Xrotation Yrotation Zrotation
			JOINT LeftLeg
			{
				OFFSET 0.000000 -0.000003 21.274193
				CHANNELS 3 Xrotation Yrotation Zrotation
				JOINT LeftLegRoll
				{
					OFFSET 0.000000 -0.000003 21.541199
					CHANNELS 3 Xrotation Yrotation Zrotation
					JOINT LeftFoot
					{
						OFFSET 0.000000 -0.000003 17.567902
						CHANNELS 3 Xrotation Yrotation Zrotation
						JOINT LeftToeBase
						{
							OFFSET 0.000000 -0.000003 14.850800
							CHANNELS 3 Xrotation Yrotation Zrotation
							End Site
							{
								OFFSET -0.028210 0.829004 7.192123
							}
						}
					}
				}
			}
		}
	}
}
MOTION
Frames: 5
Frame Time: 0.041667
54.343407 -7.140946 91.597595 -4.995515 -0.438163 0.166335 -1.607045 -0.142027 -0.125119 0.808379 -0.281734 -0.258240 2.453441 -0.284807 -0.254845 29.093601 5.009166 -0.337995 -8.555369 -3.864172 0.032834 26.984016 -70.474083 28.108112 -12.821519 -99.827333 0.372854 0.000000 0.000013 -0.000007 13.245157 -11.953311 0.435045 -0.000000 -0.000002 -2.999989 -5.000209 -7.998703 0.000151 8.355827 70.703489 -7.833612 -35.182195 105.166458 13.294787 0.000003 0.000001 0.000003 2.085678 13.250229 0.007911 0.000000 -0.000003 3.010788 -5.000231 7.998724 -0.000170 2.788901 -174.584375 2.294691 -179.999991 0.000005 -1.171003 175.542323 -2.189360 -0.207639 0.000001 -0.000001 0.037876 68.905680 6.920984 2.057039 25.456952 -7.355614 0.000011 5.912200 175.558647 -0.365987 -0.000005 -0.000005 -1.220870 -4.311942 1.270505 0.168772 -0.000006 -0.000001 -0.036908 68.989992 -6.921209 -2.061006 25.456957 7.355615 -0.000009 
54.346508 -7.142726 91.597992 -4.994625 -0.422475 0.164284 -1.607627 -0.145713 -0.124971 0.805837 -0.289123 -0.257618 2.450902 -0.292187 -0.254135 29.093450 5.047153 -0.344933 -8.561200 -3.904908 0.028754 26.991635 -70.449624 28.122298 -12.806244 -99.810873 0.360014 -0.000000 0.000013 -0.000008 13.268979 -11.973345 0.440920 -0.000001 -0.000001 -2.999990 -5.000212 -7.998704 0.000151 8.437030 70.772262 -7.911484 -35.545845 105.057653 13.698644 0.000002 0.000001 0.000002 2.088195 13.306374 0.004734 -0.000002 -0.000003 3.010790 -5.000230 7.998724 -0.000170 2.785234 -174.608349 2.281724 -179.999991 0.000006 -1.171003 175.546339 -2.193362 -0.207796 0.000001 -0.000000 0.037876 68.908010 6.921011 2.057698 25.456950 -7.355613 0.000010 5.909620 175.534755 -0.383882 -0.000005 -0.000005 -1.220870 -4.314253 1.275846 0.168760 -0.000006 -0.000002 -0.036908 68.987875 -6.921235 -2.061044 25.456959 7.355615 -0.000011 
54.354408 -7.144347 91.600983 -4.994218 -0.405932 0.161914 -1.608105 -0.149571 -0.124804 0.803485 -0.296869 -0.256949 2.448553 -0.299925 -0.253373 29.093327 5.085402 -0.351809 -8.567184 -3.945819 0.024740 26.998875 -70.425445 28.136042 -12.785602 -99.795853 0.354431 -0.000000 0.000014 -0.000008 13.291712 -11.991961 0.446449 0.000001 -0.000002 -2.999990 -5.000213 -7.998705 0.000150 8.519141 70.841486 -7.990226 -35.910198 104.949866 14.102349 0.000004 0.000001 0.000004 2.089455 13.361632 0.001688 -0.000001 -0.000003 3.010790 -5.000229 7.998724 -0.000169 2.782113 -174.634290 2.268014 -179.999991 0.000005 -1.170007 175.550642 -2.196372 -0.207864 0.000001 -0.000001 0.037876 68.910434 6.921008 2.058545 25.456952 -7.355614 0.000010 5.907656 175.509866 -0.402794 -0.000005 -0.000004 -1.220870 -4.316522 1.281466 0.168745 -0.000006 -0.000001 -0.036908 68.985881 -6.921228 -2.060968 25.456959 7.355614 -0.000010 
54.311409 -7.143357 91.604492 -4.994154 -0.388792 0.159322 -1.608517 -0.153552 -0.124625 0.801265 -0.304863 -0.256246 2.446336 -0.307910 -0.252574 29.093228 5.123828 -0.358651 -8.573276 -3.986846 0.020767 27.005552 -70.401225 28.149136 -12.761382 -99.781721 0.353718 -0.000000 0.000013 -0.000008 13.313694 -12.009830 0.451796 0.000000 -0.000002 -2.999990 -5.000211 -7.998703 0.000151 8.602114 70.911167 -8.069813 -36.276053 104.843213 14.506953 0.000002 0.000002 0.000003 2.089839 13.416495 -0.001280 -0.000002 -0.000003 3.010790 -5.000230 7.998724 -0.000170 2.779362 -174.660259 2.253842 -179.999991 0.000005 -1.168995 175.555164 -2.199368 -0.207923 0.000001 -0.000001 0.037875 68.913071 6.920983 2.059376 25.456952 -7.355614 0.000010 5.906112 175.484007 -0.422450 -0.000005 -0.000005 -1.220870 -4.318762 1.287276 0.168727 -0.000007 -0.000001 -0.036908 68.983763 -6.921218 -2.060999 25.456955 7.355614 -0.000010 
54.312508 -7.144168 91.605293 -4.994275 -0.371312 0.156604 -1.608887 -0.157602 -0.124439 0.799123 -0.313000 -0.255525 2.444197 -0.316038 -0.251756 29.093143 5.162359 -0.365472 -8.579427 -4.027961 0.016812 27.012092 -70.377149 28.162084 -12.734994 -99.768129 0.355859 0.000000 0.000013 -0.000008 13.335342 -12.027026 0.457020 -0.000002 -0.000002 -2.999990 -5.000214 -7.998702 0.000151 8.685801 70.981006 -8.150115 -36.643968 104.737816 14.913228 0.000004 0.000001 0.000005 2.089728 13.470966 -0.004194 -0.000003 -0.000003 3.010789 -5.000231 7.998726 -0.000170 2.776830 -174.687197 2.239354 -179.999991 0.000005 -1.168996 175.559781 -2.202378 -0.207978 0.000001 -0.000001 0.037876 68.915598 6.920987 2.060319 25.456953 -7.355614 0.000010 5.904818 175.457123 -0.442575 -0.000005 -0.000004 -1.220870 -4.320994 1.293205 0.168709 -0.000006 -0.000001 -0.036908 68.981639 -6.921207 -2.061028 25.456959 7.355614 -0.000011 
